<svg xmlns="http://www.w3.org/2000/svg" viewBox="0 0 32 32" fill="none">
  <defs>
    <linearGradient id="g" x1="0%" y1="100%" x2="100%" y2="0%">
      <stop offset="0%" stop-color="#2dd4bf"/>
      <stop offset="100%" stop-color="#06b6d4"/>
    </linearGradient>
  </defs>
  <rect width="32" height="32" rx="7" fill="url(#g)"/>
  <path d="M16,6 C21.5,6 26,10.5 26,16 C26,18.5 25,20.8 23.2,22.3 C21.5,23.8 19.2,24.5 17,24 C14.5,23.4 12.5,21.5 12,19 C11.7,17.5 12,16 13,15.2 C14,15.5 15,16 15,17 C15,18 15.5,19 16.5,19.5 C17.5,20 19,19.8 20,19 C21,18.2 21.5,17 21.5,16 C21.5,13.2 19,11 16,11 C13,11 10.5,13.2 10.5,16 C10.5,17.5 11,19 12,20 C13,21 14.5,21.5 16,21.5" stroke="#0b1220" stroke-width="2.4" stroke-linecap="round" fill="none"/>
</svg>
