<svg xmlns="http://www.w3.org/2000/svg" viewBox="0 0 32 32" fill="none">
  <defs>
    <linearGradient id="spinGrad" x1="0%" y1="100%" x2="100%" y2="0%">
      <stop offset="0%" stop-color="#3b82f6"/>
      <stop offset="100%" stop-color="#a855f7"/>
    </linearGradient>
  </defs>
  <rect width="32" height="32" rx="6" fill="#0f0f23"/>
  <g transform="translate(16,16)">
    <path d="M0,-10 C5.5,-10 10,-5.5 10,0 C10,2.5 9,4.8 7.2,6.3 C5.5,7.8 3.2,8.5 1,8 C-1.5,7.4 -3.5,5.5 -4,3 C-4.3,1.5 -4,0 -3,-.8 C-2,-.5 -1,0 -1,1 C-1,2 -.5,3 .5,3.5 C1.5,4 3,3.8 4,3 C5,2.2 5.5,1 5.5,0 C5.5,-2.8 3,-5 0,-5 C-3,-5 -5.5,-2.8 -5.5,0 C-5.5,1.5 -5,3 -4,4 C-3,5 -1.5,5.5 0,5.5" stroke="url(#spinGrad)" stroke-width="2.5" stroke-linecap="round" fill="none"/>
  </g>
</svg>
